# xmcd
#
# Track frame offsets:
#	150
#	12732
#	26105
#	35985
#	47377
#	62715
#	79815
#	91767
#	104017
#	113985
#
# Disc length: 1664 seconds
#
# Revision: 1
# Processed by: cddbd v1.5.1PL0 Copyright (c) Steve Scherf et al.
# Submitted via: dBpowerAMP V4.0
#
DISCID=85067e0a
DTITLE=PatsyCline,AKAVirginiaPattersonHensley,Gore,VA - Always;MCAD27069
DYEAR=1980
DGENRE=country
TTITLE0=Always(IrvingBerlin,NYC;PatsyCline,AKAVirginiaPattersonHensley,Gore,VA)
TTITLE1=IFallToPieces(HankCochran,HarlanHoward;PatsyCline,AKAVirginiaPattersonHensley,Gore,VA)
TTITLE2=TrueLove(ColePorter,Peru,IN;PatsyCline,AKAVirginiaPattersonHensley,Gore,VA)
TTITLE3=SouthOfTheBorder{DownMexicoWay}(MichaelCarr,JimmyKennedy;PatsyCline,AKAVirginiaPattersonHensley,Gore,VA)
TTITLE4=That'sMyDesire(HelmyKresa,CarrollLoveday;PatsyCline,AKAVirginiaPattersonHensley,Gore,VA)
TTITLE5=FadedLove(John&BobWills;PatsyCline,AKAVirginiaPattersonHensley,Gore,VA)
TTITLE6=I'llSailMyShipAlone(HenryBernard,BenryThurston,LoisMann,MorryBurns;PatsyCline,AKAVirginiaPattersonHensley,Gore,VA)
TTITLE7=DoesYourHeartBeatForMe(RussMorgan,ArnoldJohnson,MitchellParrish;PatsyCline,AKAVirginiaPattersonHensley,Gore,VA)
TTITLE8=Foolin'Round(HarlanHoward,BuckOwens;PatsyCline,AKAVirginiaPattersonHensley,Gore,VA)
TTITLE9=ILoveYouSoMuchItHurtsMe(FloydTillman;PatsyCline,AKAVirginiaPattersonHensley,Gore,VA)
EXTD=more info\nMillenniumMusicProjectFormat, syntax as follows:\nTitle{Subtitle}[info](Lyricist;Composer;Date,Artist,Location)[info]\ncorrections to: windking3@yahoo.com
EXTT0=
EXTT1=
EXTT2=
EXTT3=
EXTT4=
EXTT5=
EXTT6=
EXTT7=
EXTT8=
EXTT9=
PLAYORDER=
